# AST/ASF file generated using VICON BodyLanguage
# -----------------------------------------------
:version 1.10
:name VICON
:units
  mass 1.0
  length 0.45
  angle deg
:documentation
   .ast/.asf automatically generated from VICON data using
   VICON BodyBuilder and BodyLanguage model FoxedUp or BRILLIANT.MOD
:root
   order TX TY TZ RX RY RZ
   axis XYZ
   position 0 0 0  
   orientation 0 0 0 
:bonedata
  begin
     id 1 
     name lhipjoint
     direction 0.547975 -0.797114 0.253638 
     length 2.36201 
     axis 0 0 0  XYZ
  end
  begin
     id 2 
     name lfemur
     direction 0.34202 -0.939693 0  
     length 7.69075  
     axis 0 0 20  XYZ
    dof rx ry rz
    limits (-160.0 20.0)
           (-70.0 70.0)
           (-60.0 70.0)
  end
  begin
     id 3 
     name ltibia
     direction 0.34202 -0.939693 0   
     length 7.91399   
     axis 0 0 20   XYZ
    dof rx
    limits (-10.0 170.0)
  end
  begin
     id 4 
     name lfoot
     direction 0.0705293 -0.193778 0.978507   
     length 2.13618   
     axis -90 7.62852e-016 20   XYZ
    dof rx rz
    limits (-45.0 90.0)
           (-70.0 20.0)
  end
  begin
     id 5 
     name ltoes
     direction 1.53592e-011 -4.21925e-011 1   
     length 1.07518   
     axis -90 7.62852e-016 20   XYZ
    dof rx
    limits (-90.0 20.0)
  end
  begin
     id 6 
     name rhipjoint
     direction -0.57 -0.782963 0.249136   
     length 2.4047  
     axis 0 0 0  XYZ 
  end
  begin
     id 7 
     name rfemur
     direction -0.34202 -0.939693 0   
     length 7.51486   
     axis 0 0 -20   XYZ
    dof rx ry rz
    limits (-160.0 20.0)
           (-70.0 70.0)
           (-70.0 60.0)
  end
  begin
     id 8 
     name rtibia
     direction -0.34202 -0.939693 0   
     length 8.08317   
     axis 0 0 -20   XYZ
    dof rx
    limits (-10.0 170.0)
 end
 begin
     id 9 
     name rfoot
     direction -0.104954 -0.281256 0.953876   
     length 2.30343  
     axis -90 -7.62852e-016 -20   XYZ
    dof rx rz
    limits (-45.0 90.0)
           (-20.0 70.0)
  end
  begin
     id 10 
     name rtoes
     direction -1.53556e-011 -4.21922e-011 1   
     length 1.14803   
     axis -90 -7.62852e-016 -20   XYZ
    dof rx
    limits (-90.0 20.0)
  end
  begin
     id 11 
     name lowerback
     direction -0.0152855 0.99353 -0.11254   
     length 2.05311   
     axis 0 0 0   XYZ
    dof rx ry rz
    limits (-20.0 45.0)
           (-30.0 30.0)
           (-30.0 30.0)
  end
  begin
     id 12 
     name upperback
     direction -0.00157509 0.999443 -0.033332   
     length 2.06353   
     axis 0 0 0   XYZ
    dof rx ry rz
    limits (-20.0 45.0)
           (-30.0 30.0)
           (-30.0 30.0)
  end
  begin
     id 13 
     name thorax
     direction 0.00577788 0.999804 0.0189484   
     length 2.08472   
     axis 0 0 0   XYZ
    dof rx ry rz
    limits (-20.0 45.0)
           (-30.0 30.0)
           (-30.0 30.0)
  end
  begin
     id 14 
     name lowerneck
     direction -1.09301e-005 0.994719 0.10264   
     length 1.76249   
     axis 0 0 0   XYZ
    dof rx ry rz
    limits (-20.0 45.0)
           (-30.0 30.0)
           (-30.0 30.0)
  end
  begin
     id 15 
     name upperneck
     direction 0.0495018 0.988526 -0.142706   
     length 1.77897   
     axis 0 0 0   XYZ
    dof rx ry rz
    limits (-20.0 45.0)
           (-30.0 30.0)
           (-30.0 30.0)
  end
  begin
     id 16
     name head
     direction 0.0142736 0.998114 -0.0597101  
     length 1.78934  
     axis 0 0 0   XYZ
    dof rx ry rz
    limits (-20.0 45.0)
           (-30.0 30.0)
           (-30.0 30.0)
  end
  begin
     id 17 
     name lclavicle
     direction 0.918111 0.396107 -0.0130883  
     length 3.37276  
     axis 0 0 0   XYZ
    dof ry rz
    limits (-20.0 10.0)
           (0.0 20.0)
  end
  begin
     id 18 
     name lhumerus
     direction 1 -4.48975e-011 -3.26108e-027   
     length 5.34298   
     axis 180 -30 -90   XYZ
    dof rx ry rz
    limits (-60.0 90.0)
           (-90.0 90.0)
           (-90.0 90.0)
  end
  begin
     id 19
     name lradius
     direction 1 -4.48964e-011 -8.84413e-028   
     length 3.67262   
     axis 180 -30 -90   XYZ
    dof rx
    limits (-10.0 170.0)
  end
  begin
     id 20
     name lwrist
     direction 1 -4.48991e-011 -1.24264e-027   
     length 1.83631   
     axis -2.17013e-015 90 90   XYZ
    dof ry
    limits (-180.0 0.0)
 end
  begin
     id 21 
     name lhand
     direction 1 -4.48855e-011 -2.48528e-027   
     length 0.599298   
     axis 1.58582e-015 90 90   XYZ
    dof rx rz
    limits (-90.0 90.0)
           (-45.0 45.0)
  end
  begin
     id 22 
     name lfingers
     direction 1 -4.48811e-011 -4.97056e-027   
     length 0.48317   
     axis 3.17164e-015 90 90   XYZ
    dof rx
    limits (0.0 90.0)
  end
  begin
     id 23
     name lthumb
     direction 0.707107 -6.34882e-011 0.707107   
     length 0.693738   
     axis -90 45 2.85299e-015   XYZ
    dof rx rz
    limits (-45.0 45.0)
           (-45.0 45.0)
  end
  begin
     id 24 
     name rclavicle
     direction -0.920511 0.384752 -0.0680135   
     length 3.43787  
     axis 0 0 0   XYZ 
    dof ry rz
    limits (-10.0 20.0)
           (-20.0 0.0)
  end
  begin
     id 25 
     name rhumerus
     direction -0.999976 -0.00330524 0.00603274  
     length 5.5498   
     axis 180 30 90   XYZ
    dof rx ry rz
    limits (-90.0 60.0)
           (-90.0 90.0)
           (-90.0 90.0)
  end
  begin
     id 26 
     name rradius
     direction -1 -4.48967e-011 8.62438e-027   
     length 3.69401   
     axis 180 30 90   XYZ
    dof rx
    limits (-10.0 170.0)
  end
  begin
     id 27 
     name rwrist
     direction -1 -4.4897e-011 9.54866e-027   
     length 1.84701   
     axis -7.69462e-015 -90 -90   XYZ
    dof ry
    limits (-180.0 0.0)
  end
  begin
     id 28
     name rhand
     direction -1 -4.48982e-011 1.90973e-026   
     length 0.638113   
     axis -1.21857e-014 -90 -90   XYZ
    dof rx rz
    limits (-90.0 90.0)
           (-45.0 45.0)
  end
  begin
     id 29
     name rfingers
     direction -1 -4.48936e-011 3.81946e-026   
     length 0.514463   
     axis -2.43714e-014 -90 -90   XYZ
    dof rx
    limits (0.0 90.0)
  end
  begin
     id 30
     name rthumb
     direction -0.707107 -6.34942e-011 0.707107   
     length 0.738669   
     axis -90 -45 -2.85299e-015   XYZ
    dof rx rz
    limits (-45.0 45.0)
           (-45.0 45.0)
  end
:hierarchy
  begin
    root lhipjoint rhipjoint lowerback
    lhipjoint lfemur
    lfemur ltibia
    ltibia lfoot
    lfoot ltoes
    rhipjoint rfemur
    rfemur rtibia
    rtibia rfoot
    rfoot rtoes
    lowerback upperback
    upperback thorax
    thorax lowerneck lclavicle rclavicle
    lowerneck upperneck
    upperneck head
    lclavicle lhumerus
    lhumerus lradius
    lradius lwrist
    lwrist lhand lthumb
    lhand lfingers
    rclavicle rhumerus
    rhumerus rradius
    rradius rwrist
    rwrist rhand rthumb
    rhand rfingers
  end

#!OML:ASF F:\twosubjects\two\Thursday\Session 1\Rory.ASF
:FULLY-SPECIFIED
:DEGREES
166
root 20.2264 19.0714 25.2037 4.84821 -19.5975 -1.22667
lowerback -1.28035 -2.52975 -0.814605
upperback 2.4331 -3.3358 -0.721235
thorax 3.21969 -1.67486 -0.421149
lowerneck 7.9033 -20.6103 -15.7067
upperneck 5.84671 -31.6352 26.0874
head 7.39669 -15.8683 7.75404
rclavicle -3.30976e-014 7.95139e-016
rhumerus -30.9805 4.10425 -89.064
rradius 58.4569
rwrist 5.45006
rhand -24.9757 22.5542
rfingers 7.12502
rthumb 1.53507 -7.42003
lclavicle -3.30976e-014 7.95139e-016
lhumerus -54.8926 25.9075 52.42
lradius 19.7324
lwrist -30.464
lhand -5.25765 28.9263
lfingers 7.12502
lthumb 20.5458 57.859
rfemur 5.5748 9.57836 23.3909
rtibia 16.2837
rfoot -12.1947 11.853
rtoes -11.9335
lfemur -19.9612 -4.85007 -9.28586
ltibia 3.97569e-014
lfoot -8.46871 16.7068
ltoes -1.40246
167
root 20.2548 19.0754 25.3665 4.89698 -18.934 -0.213228
lowerback -1.15133 -2.93361 -1.70931
upperback 2.01705 -3.85163 -0.920989
thorax 2.76463 -1.94775 -0.128393
lowerneck 8.1653 -20.4475 -15.7512
upperneck 5.79711 -31.3547 25.7555
head 7.21683 -15.7634 7.75974
rclavicle 4.90998e-014 2.38542e-015
rhumerus -31.677 3.94868 -88.9033
rradius 57.9346
rwrist 5.85738
rhand -24.2825 21.9993
rfingers 7.12502
rthumb 2.20449 -7.96909
lclavicle 4.90998e-014 2.38542e-015
lhumerus -55.5913 25.7552 52.0344
lradius 19.4688
lwrist -30.501
lhand -4.64611 28.7392
lfingers 7.12502
lthumb 21.1334 57.6074
rfemur 5.72799 8.46113 21.9234
rtibia 16.3993
rfoot -12.3269 12.3926
rtoes -12.732
lfemur -20.5298 -5.7033 -10.6689
ltibia -6.04305e-014
lfoot -7.56822 17.1691
ltoes -4.65436
168
root 20.2677 19.0562 25.5277 4.8018 -18.8619 -0.991542
lowerback -0.6012 -3.02179 -0.960242
upperback 2.03588 -3.99863 -0.813935
thorax 2.43208 -2.0072 -0.406969
lowerneck 8.2474 -20.3815 -15.6662
upperneck 5.62191 -31.2305 25.7968
head 7.114 -15.7206 7.80586
rclavicle -4.03533e-014 -2.38542e-015
rhumerus -31.983 3.5427 -88.8744
rradius 57.1062
rwrist 5.84153
rhand -24.2587 22.218
rfingers 7.12502
rthumb 2.22755 -7.75014
lclavicle -4.03533e-014 -2.38542e-015
lhumerus -55.9834 26.1195 51.1449
lradius 19.0399
lwrist -31.4918
lhand -4.18592 28.4273
lfingers 7.12502
lthumb 21.5754 57.2454
rfemur 6.66482 8.75642 22.739
rtibia 16.3036
rfoot -12.0778 12.1726
rtoes -14.1586
lfemur -20.0976 -5.8595 -10.2524
ltibia -4.77083e-014
lfoot -8.25682 18.0999
ltoes 1.67465
169
root 20.2737 19.0499 25.6928 4.52635 -18.6944 0.751909
lowerback -1.04667 -3.11211 -2.58777
upperback 2.04565 -4.06039 -1.40086
thorax 2.76585 -2.06529 -0.135951
lowerneck 8.29855 -20.4376 -15.5683
upperneck 5.32682 -31.3032 26.1377
head 7.07813 -15.7734 7.89189
rclavicle 3.52843e-014 1.27222e-014
rhumerus -32.0707 2.73722 -88.76
rradius 55.9802
rwrist 5.80088
rhand -24.2059 23.0504
rfingers 7.12502
rthumb 2.27854 -6.9172
lclavicle 3.52843e-014 1.27222e-014
lhumerus -55.9457 26.5872 50.3595
lradius 18.4916
lwrist -32.7506
lhand -4.61823 28.5172
lfingers 7.12502
lthumb 21.1602 57.3824
rfemur 6.82027 8.4172 20.6484
rtibia 16.4305
rfoot -12.1265 12.4822
rtoes -15.6088
lfemur -20.1812 -6.34544 -12.4979
ltibia -3.33958e-014
lfoot -7.43352 19.0463
ltoes -0.73233
170
root 20.247 19.0285 25.8595 4.21565 -19.1338 -0.425998
lowerback -0.696488 -2.84764 -1.87548
upperback 2.38876 -3.73388 -1.17963
thorax 2.88418 -1.89266 -0.284241
lowerneck 8.35176 -20.5223 -15.3454
upperneck 5.01238 -31.3305 26.1598
head 6.94306 -15.8048 7.88319
rclavicle 9.54166e-015 6.36111e-015
rhumerus -32.2999 1.85429 -88.5535
rradius 55.1483
rwrist 5.97726
rhand -24.3475 22.6396
rfingers 7.12502
rthumb 2.14172 -7.32944
lclavicle 9.54166e-015 6.36111e-015
lhumerus -55.3776 26.404 50.5088
lradius 17.8255
lwrist -32.7508
lhand -5.73759 29.3458
lfingers 7.12502
lthumb 20.0846 58.3277
rfemur 8.21897 9.98853 22.2881
rtibia 16.18
rfoot -11.5873 11.4133
rtoes -16.8061
lfemur -19.0714 -5.93847 -11.6261
ltibia -4.6118e-014
lfoot -6.57742 19.7209
ltoes -4.53528
171
root 20.2784 19.0209 26.0303 4.15113 -18.5527 0.195359
lowerback -0.710177 -3.04287 -2.19131
upperback 2.27083 -3.98383 -1.41804
thorax 2.77825 -2.02046 -0.35818
lowerneck 8.50514 -20.5281 -15.2537
upperneck 4.9065 -31.2775 25.9584
head 6.81844 -15.7974 7.84955
rclavicle 3.49861e-014 -2.8625e-014
rhumerus -32.7339 1.12239 -88.2254
rradius 54.1677
rwrist 6.2676
rhand -24.287 22.5484
rfingers 7.12502
rthumb 2.20017 -7.42003
lclavicle 3.49861e-014 -2.8625e-014
lhumerus -55.2565 26.5782 50.1543
lradius 17.1745
lwrist -33.3251
lhand -5.61126 29.4667
lfingers 7.12502
lthumb 20.206 58.4358
rfemur 8.63756 8.92627 21.1888
rtibia 16.2379
rfoot -11.3683 12.2343
rtoes -15.9873
lfemur -19.0604 -6.71643 -12.6923
ltibia -1.90833e-014
lfoot -3.51823 20.2067
ltoes -5.8328
